<?xml version="1.0" encoding="utf-8"?>
<!-- Generator: Adobe Illustrator 15.1.0, SVG Export Plug-In . SVG Version: 6.00 Build 0)  -->
<!DOCTYPE svg PUBLIC "-//W3C//DTD SVG 1.1//EN" "http://www.w3.org/Graphics/SVG/1.1/DTD/svg11.dtd">
<svg version="1.1" id="Layer_1" xmlns="http://www.w3.org/2000/svg" xmlns:xlink="http://www.w3.org/1999/xlink" x="0px" y="0px"
	 width="519.055px" height="153.574px" viewBox="0 0 519.055 153.574" enable-background="new 0 0 519.055 153.574"
	 xml:space="preserve">
<g>
	<path fill="#4D555B" d="M184.836,57.97v-7.918c0-0.71,0.296-1.124,1.006-1.243l5.731-1.003h0.294c0.532,0,0.887,0.354,0.887,0.943
		v38.348c0,1.715-0.177,3.668-3.546,4.614c-2.599,0.709-5.909,1.298-9.868,1.298c-11.583,0-15.245-4.078-15.245-16.13
		c0-10.46,2.717-16.428,13.118-16.428c3.44,0,6.208,0.59,7.592,0.949L184.836,57.97z M184.836,66.598c0,0-2.896-0.652-5.673-0.652
		c-5.022,0-6.972,1.184-6.972,10.578c0,9.927,2.245,10.992,7.208,10.992c2.898,0,5.437-0.711,5.437-0.711V66.598z"/>
	<path fill="#4D555B" d="M209.527,103.884c-0.538,0-0.926-0.518-0.781-1.034l2.988-10.552h-3.84c-0.594,0-0.948-0.412-1.123-0.944
		l-8.629-28.778c-0.059-0.117-0.059-0.239-0.059-0.355c0-0.532,0.355-0.944,0.946-0.944h5.968c0.709,0,1.005,0.235,1.182,0.944
		l6.383,24.996h1.595l5.674-24.937c0.176-0.709,0.59-1.003,1.298-1.003h6.027c0.65,0,1.066,0.412,1.066,0.944
		c0,0.116-0.06,0.238-0.06,0.355l-11.858,40.278c-0.178,0.607-0.74,1.03-1.375,1.03H209.527z"/>
	<path fill="#4D555B" d="M259.938,92.298h-6.088c-0.529,0-0.944-0.355-0.944-0.885v-20.86c0-3.429-1.3-4.609-4.432-4.609
		c-3.546,0-7.389,1.005-7.389,1.005v24.464c0,0.53-0.352,0.885-0.885,0.885h-6.027c-0.59,0-1.004-0.355-1.004-0.885V65.944
		c0-2.245,1.122-3.014,4.432-3.899c3.013-0.829,7.977-1.538,11.757-1.538c7.389,0,11.465,1.893,11.465,8.984v21.922
		C260.823,91.943,260.471,92.298,259.938,92.298"/>
	<path fill="#4D555B" d="M349.001,92.298h-6.087c-0.531,0-0.945-0.355-0.945-0.885v-20.86c0-3.429-1.479-4.609-4.609-4.609
		c-3.543,0-7.386,1.005-7.386,1.005v24.464c0,0.53-0.294,0.885-0.885,0.885h-6.029c-0.591,0-0.942-0.355-0.942-0.885v-20.86
		c0-3.429-1.36-4.609-4.491-4.609c-3.548,0-7.566,1.005-7.566,1.005v24.464c0,0.53-0.354,0.885-0.885,0.885h-6.027
		c-0.591,0-1.005-0.355-1.005-0.885V65.944c0-2.245,1.124-3.014,4.432-3.899c3.013-0.829,8.095-1.538,11.876-1.538
		c3.724,0,6.322,0.827,7.918,2.069c1.656-0.65,7.269-2.069,12.058-2.069c7.326,0,11.462,1.893,11.462,8.984v21.922
		C349.888,91.943,349.534,92.298,349.001,92.298"/>
	<path fill="#4D555B" d="M365.032,92.298h-6.025c-0.532,0-0.946-0.355-0.946-0.885V62.694c0-0.532,0.414-0.887,0.946-0.887h6.025
		c0.532,0,0.89,0.355,0.89,0.887v28.719C365.922,91.943,365.564,92.298,365.032,92.298 M364.501,57.259h-4.962
		c-0.946,0-1.421-0.416-1.421-1.36V49.22c0-0.944,0.475-1.358,1.421-1.358h4.962c0.945,0,1.421,0.414,1.421,1.358v6.679
		C365.922,56.843,365.446,57.259,364.501,57.259"/>
	<path fill="#00AEEF" d="M437.106,91.461c-0.11,0.446-0.559,0.837-1.003,0.837h-7.603c-0.505,0-0.896-0.391-1.008-0.837
		l-5.644-24.143l-5.645,24.143c-0.11,0.446-0.559,0.837-1.005,0.837h-7.377c-0.503,0-0.893-0.391-1.007-0.837l-6.258-29.954v-0.168
		c0-0.391,0.222-0.728,0.558-0.728h4.022c0.394,0,0.843,0.113,0.896,0.56l4.639,26.992h1.563l5.869-24.197
		c0.112-0.447,0.559-0.838,1.005-0.838h5.646c0.502,0,0.895,0.391,1.005,0.838l5.867,24.197h1.565l4.583-26.992
		c0.11-0.447,0.504-0.56,0.951-0.56h3.965c0.282,0,0.503,0.337,0.503,0.728v0.168L437.106,91.461z"/>
	<path fill="#00AEEF" d="M449.79,61.454c0-0.505,0.393-0.843,0.896-0.843h20.177c0.503,0,0.835,0.338,0.835,0.843v2.624
		c0,0.503-0.332,0.837-0.835,0.837h-15.875v8.719h15.257c0.504,0,0.839,0.336,0.839,0.839v2.683c0,0.503-0.335,0.837-0.839,0.837
		h-15.257V88.05h15.929c0.503,0,0.835,0.334,0.835,0.786v2.625c0,0.502-0.386,0.837-0.835,0.837h-20.23
		c-0.503,0-0.896-0.335-0.896-0.837V61.454z"/>
	<path fill="#00AEEF" d="M515.499,57.435h-0.985c-0.097,0-0.15-0.043-0.15-0.121l-0.086-1.459c-0.035-0.722-0.603-0.897-1.378-0.924
		l-1.37-0.034v2.408c0,0.079-0.064,0.13-0.15,0.13h-0.967c-0.079,0-0.14-0.051-0.14-0.13v-6.181c0-0.079,0.067-0.138,0.146-0.138
		h2.948c1.328,0,2.143,0.436,2.143,1.789c0,0.915-0.351,1.429-1.457,1.562v0.244c0.896,0.062,1.457,0.255,1.518,1.51l0.05,1.207
		C515.62,57.329,515.577,57.435,515.499,57.435 M513.171,51.883h-1.642v2.21l1.406-0.063c0.792-0.036,1.299-0.217,1.299-1.056
		C514.234,52.233,513.956,51.883,513.171,51.883"/>
	<path fill="#4D555B" d="M286.94,77.232v9.865c-1.239,0.414-3.131,0.832-5.437,0.832c-2.835,0-6.558-0.357-6.558-4.968
		c0-3.841,2.247-4.192,4.669-4.547c0.537-0.086,1.076-0.184,1.615-0.266c1.199-0.181,1.817-0.229,1.817-1.36v-2.442
		c0-0.764-0.527-1.512-1.45-1.387l-5.174,0.844c-4.727,0.767-9.514,1.594-9.514,9.219c0,9.396,7.857,10.042,14.24,10.042
		c3.309,0,6.146-0.352,8.214-0.823c4.018-0.946,5.495-1.715,5.495-6.145V69.788c0-3.193-0.591-5.971-3.604-7.625
		c-1.892-1.066-4.728-1.655-8.924-1.655c-6.026,0-11.463,1.478-12.88,2.01c-0.297,0.116-0.711,0.354-0.711,0.885v0.238l0.827,3.664
		c0.059,0.414,0.354,0.531,0.651,0.531c0.116,0,0.235-0.06,0.414-0.06c1.771-0.471,6.146-1.654,10.163-1.654
		c2.127,0,3.545,0.178,4.49,0.591c1.477,0.649,1.653,1.831,1.653,3.487V77.232z"/>
	<path fill="#00AEEF" d="M498.803,76.482v-1.227c3.405-0.672,5.758-2.124,5.758-6.651c0-5.419-2.963-7.993-9.724-7.993h-14.476
		c-0.503,0-0.896,0.338-0.896,0.843v30.007c0,0.502,0.393,0.837,0.896,0.837h13.915c7.097,0,11.287-2.57,11.287-8.494
		C505.563,78.774,503.219,76.931,498.803,76.482 M494.33,88.163h-9.403c-0.143,0-0.264-0.118-0.264-0.268v-7.286
		c0-0.003-0.004-0.007-0.008-0.007c-0.003,0-0.003,0-0.003-0.003v-8.962c0-0.002,0-0.004,0.003-0.004
		c0.004,0,0.008-0.004,0.008-0.005v-6.611c0-0.149,0.121-0.27,0.264-0.27h9.628c3.463,0,4.748,1.51,4.748,4.528
		c0,3.352-1.785,4.359-5.251,4.582l-4.562,0.261c-0.3,0.018-0.535,0.267-0.535,0.567v2.776c0,0.301,0.235,0.546,0.535,0.556
		l4.673,0.199c4.865,0.112,6.094,1.62,6.094,5.144C500.256,86.039,499.027,88.163,494.33,88.163"/>
	<path fill="#4D555B" d="M398.678,86.598c-0.119-0.53-0.533-0.648-0.887-0.648l-0.672,0.009c-1.301,0.354-4.699,1.264-7.593,1.264
		c-6.383,0-8.274-2.774-8.274-10.697c0-7.916,1.892-10.635,8.274-10.635c0.929,0,2.49,0.288,3.95,0.54
		c0.507,0.087,0.989-0.283,0.899-0.79l-0.667-3.658c-0.111-0.613-0.551-1.162-1.166-1.241c-1.822-0.225-2.502-0.405-4.676-0.405
		c-11.519,0-14.652,5.374-14.652,16.189c0,10.877,3.134,16.194,14.652,16.194c4.143,0,9.335-0.98,10.811-1.747
		c0.354-0.179,0.649-0.418,0.649-0.889c0-0.122,0-0.234-0.061-0.355L398.678,86.598z"/>
	<path fill="#00AEEF" d="M517.966,54.149c0,2.857-2.324,5.183-5.181,5.183c-2.859,0-5.183-2.326-5.183-5.183
		c0-2.856,2.323-5.18,5.183-5.18C515.642,48.969,517.966,51.293,517.966,54.149 M512.785,47.878c-3.459,0-6.271,2.815-6.271,6.271
		c0,3.458,2.812,6.27,6.271,6.27c3.456,0,6.27-2.812,6.27-6.27C519.055,50.693,516.241,47.878,512.785,47.878"/>
	<path fill="#00AEEF" d="M56.951,58.833c11.056,11.056,0.461,39.573-10.816,50.848c-11.274,11.275-9.409-18.12-20.463-29.174
		C14.618,69.453-11.913,87.668,6.104,69.651C17.38,58.375,45.897,47.779,56.951,58.833"/>
	<path fill="#4D555B" d="M94.5,56.951c-11.055,11.052-39.572,0.46-50.848-10.816c-11.275-11.276,18.12-9.409,29.174-20.464
		c11.055-11.054-7.159-37.583,10.857-19.566C94.959,17.38,105.552,45.896,94.5,56.951"/>
	<path fill="#00AEEF" d="M96.624,94.738c-11.056-11.054-0.459-39.573,10.815-50.846c11.275-11.275,9.41,18.12,20.463,29.172
		c11.055,11.056,37.587-7.159,19.568,10.858C136.195,95.199,107.677,105.792,96.624,94.738"/>
	<path fill="#4D555B" d="M59.077,96.624c11.054-11.054,39.571-0.459,50.846,10.816c11.274,11.275-18.121,9.408-29.175,20.462
		c-11.054,11.055,7.161,37.584-10.857,19.568C58.618,136.194,48.022,107.678,59.077,96.624"/>
</g>
</svg>
